<?xml version="1.0" encoding="UTF-8"?>
<!DOCTYPE svg PUBLIC "-//W3C//DTD SVG 1.1//EN" "http://www.w3.org/Graphics/SVG/1.1/DTD/svg11.dtd">
<!-- Creator: CorelDRAW 2020 (64-Bit) -->
<svg xmlns="http://www.w3.org/2000/svg" xml:space="preserve" width="297mm" height="210mm" version="1.1" style="shape-rendering:geometricPrecision; text-rendering:geometricPrecision; image-rendering:optimizeQuality; fill-rule:evenodd; clip-rule:evenodd"
viewBox="0 0 29700 21000"
 xmlns:xlink="http://www.w3.org/1999/xlink"
 xmlns:xodm="http://www.corel.com/coreldraw/odm/2003">
 <defs>
  <style type="text/css">
   <![CDATA[
    .str0 {stroke:#5B5B5B;stroke-width:100;stroke-miterlimit:22.9256}
    .str7 {stroke:#FEFEFE;stroke-width:200;stroke-miterlimit:22.9256}
    .str8 {stroke:#EBECEC;stroke-width:70;stroke-miterlimit:22.9256}
    .str13 {stroke:#EBECEC;stroke-width:70;stroke-miterlimit:22.9256}
    .str9 {stroke:#D9DADA;stroke-width:70;stroke-miterlimit:22.9256}
    .str4 {stroke:#D9DADA;stroke-width:70;stroke-miterlimit:22.9256}
    .str14 {stroke:#FEFEFE;stroke-width:50;stroke-miterlimit:22.9256}
    .str5 {stroke:#2B2A29;stroke-width:50;stroke-miterlimit:22.9256}
    .str10 {stroke:#FEFEFE;stroke-width:35;stroke-miterlimit:22.9256}
    .str2 {stroke:#FEFEFE;stroke-width:35;stroke-miterlimit:22.9256}
    .str15 {stroke:#2B2A29;stroke-width:25;stroke-miterlimit:22.9256}
    .str16 {stroke:#434242;stroke-width:20;stroke-miterlimit:22.9256}
    .str1 {stroke:#FEFEFE;stroke-width:10;stroke-miterlimit:22.9256}
    .str6 {stroke:#FEFEFE;stroke-width:7.62;stroke-miterlimit:22.9256}
    .str12 {stroke:#FEFEFE;stroke-width:7.62;stroke-miterlimit:22.9256}
    .str11 {stroke:#FEFEFE;stroke-width:50;stroke-miterlimit:22.9256;stroke-dasharray:250.000000 250.000000}
    .str3 {stroke:#FEFEFE;stroke-width:50;stroke-miterlimit:22.9256;stroke-dasharray:250.000000 250.000000}
    .fil2 {fill:none}
    .fil4 {fill:#FEFEFE}
    .fil1 {fill:#FEFEFE}
    .fil3 {fill:#C5C6C6}
    .fil5 {fill:#A2D9F7}
    .fil6 {fill:#A2D9F7}
    .fil0 {fill:#3F3F3F}
    .fil7 {fill:#FEFEFE;fill-rule:nonzero}
   ]]>
  </style>
 </defs>
 <g id="Road">
  <metadata id="CorelCorpID_0Corel-Layer"/>
  <path class="fil0 str0" d="M11761.19 758.05l5735.09 0 8.39 5441.04c15.38,1357.08 741.75,2239.44 2449.48,2314.86l5568.85 1.22 52.92 3853.19 -5621.77 1.24c-1707.73,76.28 -2434.1,968.79 -2449.48,2341.48l-8.8 5530.88 -5083.31 0 -8.8 -5397.59c-15.38,-1346.25 -741.75,-2221.57 -2449.48,-2296.38l-5899.2 -1.29 92.52 -3981.44 5327.94 46.94c1587.81,-76.37 2263.17,-969.91 2277.47,-2344.19l8.18 -5509.96z"/>
  <rect class="fil1" transform="matrix(-7.01049E-14 1 -1 -6.9294E-13 20674.6 8562.62)" width="1836.92" height="200"/>
  <polygon class="fil1 str1" points="25157.91,10518.22 20474.58,10518.22 20474.58,10412.68 25157.91,10412.68 "/>
  <line class="fil2 str2" x1="25172.99" y1="9216.66" x2="20609.41" y2= "9216.66" />
  <line class="fil2 str2" x1="25172.99" y1="8708.66" x2="20609.41" y2= "8708.66" />
  <line class="fil2 str3" x1="25157.91" y1="11118.5" x2="20474.58" y2= "11118.5" />
  <line class="fil2 str4" x1="23740.73" y1="9908.92" x2="23747.79" y2= "8514.77" />
  <line class="fil2 str2" x1="25172.99" y1="9814.67" x2="20609.41" y2= "9814.67" />
  <ellipse class="fil3 str5" transform="matrix(1.10858 0.172338 -0.19933 1.2822 23747.8 8514.78)" rx="89.13" ry="77.06"/>
  <line class="fil2 str3" x1="25157.91" y1="11718.79" x2="20474.58" y2= "11718.79" />
  <rect class="fil4 str6" transform="matrix(1.33954E-13 -1 1 7.62118E-13 9309.97 12500.3)" width="1908.95" height="200"/>
  <g id="_301300928">
   <rect class="fil4 str6" transform="matrix(-6.52199E-14 1 -1 -9.67502E-14 10278.6 8826.97)" width="182.6" height="599.86"/>
   <rect class="fil4 str6" transform="matrix(-6.52199E-14 1 -1 -9.67502E-14 10278.6 9192.66)" width="182.6" height="599.86"/>
   <rect class="fil4 str6" transform="matrix(-6.52199E-14 1 -1 -9.67502E-14 10278.5 9558.35)" width="182.6" height="599.86"/>
   <rect class="fil4 str6" transform="matrix(-6.52199E-14 1 -1 -9.67502E-14 10278.5 9924.04)" width="182.6" height="599.86"/>
   <rect class="fil4 str6" transform="matrix(-6.52199E-14 1 -1 -9.67502E-14 10278.5 10289.7)" width="182.6" height="599.86"/>
   <rect class="fil4 str6" transform="matrix(-6.52199E-14 1 -1 -9.67502E-14 10278.5 10655.4)" width="182.6" height="599.86"/>
   <rect class="fil4 str6" transform="matrix(-6.52199E-14 1 -1 -9.67502E-14 10278.5 11021.1)" width="182.6" height="599.86"/>
   <rect class="fil4 str6" transform="matrix(-6.52199E-14 1 -1 -9.67502E-14 10278.5 11386.8)" width="182.6" height="599.86"/>
   <rect class="fil4 str6" transform="matrix(-6.52199E-14 1 -1 -9.67502E-14 10278.5 11752.5)" width="182.6" height="599.86"/>
   <rect class="fil4 str6" transform="matrix(-6.52199E-14 1 -1 -9.67502E-14 10278.4 12118.2)" width="182.6" height="599.86"/>
  </g>
  <g id="_301299632">
   <rect class="fil1" transform="matrix(-6.52199E-14 1 -1 -9.67502E-14 20192.2 8734.7)" width="182.6" height="599.86"/>
   <rect class="fil1" transform="matrix(-6.52199E-14 1 -1 -9.67502E-14 20192.2 9100.39)" width="182.6" height="599.86"/>
   <rect class="fil1" transform="matrix(-6.52199E-14 1 -1 -9.67502E-14 20192.2 9466.08)" width="182.6" height="599.86"/>
   <rect class="fil1" transform="matrix(-6.52199E-14 1 -1 -9.67502E-14 20192.1 9831.77)" width="182.6" height="599.86"/>
   <rect class="fil1" transform="matrix(-6.52199E-14 1 -1 -9.67502E-14 20192.1 10197.5)" width="182.6" height="599.86"/>
   <rect class="fil1" transform="matrix(-6.52199E-14 1 -1 -9.67502E-14 20192.1 10563.1)" width="182.6" height="599.86"/>
   <rect class="fil1" transform="matrix(-6.52199E-14 1 -1 -9.67502E-14 20192.1 10928.8)" width="182.6" height="599.86"/>
   <rect class="fil1" transform="matrix(-6.52199E-14 1 -1 -9.67502E-14 20192.1 11294.5)" width="182.6" height="599.86"/>
   <rect class="fil1" transform="matrix(-6.52199E-14 1 -1 -9.67502E-14 20192.1 11660.2)" width="182.6" height="599.86"/>
   <rect class="fil1" transform="matrix(-6.52199E-14 1 -1 -9.67502E-14 20192.1 12025.9)" width="182.6" height="599.86"/>
  </g>
  <line class="fil2 str7" x1="4373.74" y1="10472.68" x2="9509.97" y2= "10472.68" />
  <line class="fil2 str8" x1="5298.1" y1="11266" x2="5291.03" y2= "12546.97" />
  <line class="fil2 str9" x1="11177.48" y1="11420.38" x2="11184.54" y2= "12791.12" />
  <g id="_879134848">
   <line class="fil2 str10" x1="4678.77" y1="11774.24" x2="9368.36" y2= "11774.24" />
   <line class="fil2 str10" x1="4678.77" y1="11176.23" x2="9368.36" y2= "11176.23" />
   <line class="fil2 str10" x1="4678.77" y1="12375.69" x2="9368.36" y2= "12375.69" />
  </g>
  <ellipse class="fil3 str5" transform="matrix(-1.10858 -0.172338 0.19933 -1.2822 5291.03 12547)" rx="89.13" ry="77.06"/>
  <ellipse class="fil3 str5" transform="matrix(1.10858 -0.172338 -0.19933 -1.2822 11184.5 12791.1)" rx="89.13" ry="77.06"/>
  <g id="_879161152">
   <line class="fil2 str11" x1="4599.16" y1="9872.4" x2="9340.66" y2= "9872.4" />
   <line class="fil2 str11" x1="4599.16" y1="9272.11" x2="9340.66" y2= "9272.11" />
  </g>
  <g id="_879161344">
   <rect class="fil1 str12" x="17157.42" y="6302.15" width="200" height="599.8"/>
   <rect class="fil1 str12" x="16756.9" y="6302.14" width="200" height="599.8"/>
   <rect class="fil1 str12" x="16356.38" y="6302.12" width="200" height="599.8"/>
   <rect class="fil1 str12" x="15955.86" y="6302.11" width="200" height="599.8"/>
   <rect class="fil1 str12" x="15555.34" y="6302.09" width="200" height="599.8"/>
   <rect class="fil1 str12" x="15154.82" y="6302.08" width="200" height="599.8"/>
   <rect class="fil1 str12" x="14754.3" y="6302.06" width="200" height="599.8"/>
   <rect class="fil1 str12" x="14353.78" y="6302.05" width="200" height="599.8"/>
   <rect class="fil1 str12" x="13953.26" y="6302.03" width="200" height="599.8"/>
   <rect class="fil1 str12" x="13552.74" y="6302.02" width="200" height="599.8"/>
   <rect class="fil1 str12" x="12751.7" y="6301.99" width="200" height="599.8"/>
   <rect class="fil1 str12" x="13152.22" y="6302" width="200" height="599.8"/>
   <rect class="fil1 str12" x="12351.18" y="6301.97" width="200" height="599.8"/>
   <rect class="fil1 str12" x="11950.66" y="6301.96" width="200" height="599.8"/>
  </g>
  <line class="fil2 str7" x1="14980.33" y1="758.05" x2="14980.33" y2= "6059.2" />
  <line class="fil2 str8" x1="17498.97" y1="2648.52" x2="11788.86" y2= "2641.45" />
  <g id="_879153424">
   <line class="fil2 str10" x1="13678.77" y1="1279.56" x2="13678.77" y2= "5859.2" />
   <line class="fil2 str10" x1="14276.78" y1="1279.56" x2="14276.78" y2= "5859.2" />
   <line class="fil2 str10" x1="13077.32" y1="1279.56" x2="13077.32" y2= "5859.2" />
   <line class="fil2 str10" x1="12499.3" y1="1279.56" x2="12499.3" y2= "5859.2" />
   <line class="fil2 str10" x1="11923.47" y1="1279.56" x2="11923.47" y2= "5859.2" />
  </g>
  <ellipse class="fil3 str5" transform="matrix(0.172338 -1.10858 1.2822 0.19933 11758.4 2638.91)" rx="89.13" ry="77.06"/>
  <ellipse class="fil3 str5" transform="matrix(0.172338 -1.10858 1.2822 0.19933 17499 2648.52)" rx="89.13" ry="77.06"/>
  <g id="_879154192">
   <line class="fil2 str11" x1="15580.61" y1="1041.44" x2="15580.61" y2= "6145.34" />
   <line class="fil2 str11" x1="16764.97" y1="1041.44" x2="16764.97" y2= "6145.34" />
   <line class="fil2 str11" x1="16180.9" y1="1041.44" x2="16180.9" y2= "6145.34" />
  </g>
  <rect class="fil4 str6" x="14647.6" y="15081.13" width="2717.46" height="200"/>
  <rect class="fil1" x="11802.14" y="5859.2" width="3052.22" height="200"/>
  <g id="_879147472">
   <rect class="fil4" x="12560.81" y="14312.5" width="208.62" height="599.83"/>
   <rect class="fil4" x="12978.59" y="14312.52" width="208.62" height="599.83"/>
   <rect class="fil4" x="13396.38" y="14312.53" width="208.62" height="599.83"/>
   <rect class="fil4" x="13814.16" y="14312.55" width="208.62" height="599.83"/>
   <rect class="fil4" x="14231.95" y="14312.56" width="208.62" height="599.83"/>
   <rect class="fil4" x="14649.73" y="14312.58" width="208.62" height="599.83"/>
   <rect class="fil4" x="15067.52" y="14312.59" width="208.62" height="599.83"/>
   <rect class="fil4" x="15485.3" y="14312.61" width="208.62" height="599.83"/>
   <rect class="fil4" x="15903.09" y="14312.62" width="208.62" height="599.83"/>
   <rect class="fil4" x="16320.87" y="14312.64" width="208.62" height="599.83"/>
   <rect class="fil4" x="16738.65" y="14312.65" width="208.62" height="599.83"/>
   <rect class="fil4" x="17156.44" y="14312.67" width="208.62" height="599.83"/>
  </g>
  <line class="fil2 str7" x1="14443.42" y1="20202.42" x2="14443.42" y2= "15081.12" />
  <line class="fil2 str4" x1="15712.98" y1="18277" x2="17483.99" y2= "18284.07" />
  <line class="fil2 str4" x1="15743.22" y1="13380.14" x2="17844.82" y2= "13373.07" />
  <line class="fil2 str13" x1="13397.19" y1="7811.32" x2="11295.6" y2= "7818.39" />
  <line class="fil2 str11" x1="13300.8" y1="20016.54" x2="13300.8" y2= "15081.12" />
  <line class="fil2 str11" x1="13808.86" y1="20016.54" x2="13808.86" y2= "15081.12" />
  <ellipse class="fil3 str5" transform="matrix(-0.172338 1.10858 -1.2822 -0.19933 17514.4 18286.6)" rx="89.13" ry="77.06"/>
  <ellipse class="fil3 str5" transform="matrix(-0.172338 -1.10858 -1.2822 0.19933 17875.2 13370.5)" rx="89.13" ry="77.06"/>
  <ellipse class="fil3 str5" transform="matrix(0.172338 1.10858 1.2822 -0.19933 11265.2 7820.93)" rx="89.13" ry="77.06"/>
  <g id="_879139936">
   <line class="fil2 str14" x1="15712.98" y1="20016.54" x2="15712.98" y2= "15281.13" />
   <line class="fil2 str14" x1="16310.99" y1="20016.54" x2="16310.99" y2= "15281.13" />
   <line class="fil2 str14" x1="16912.44" y1="20016.54" x2="16912.44" y2= "15281.13" />
   <line class="fil2 str14" x1="15077.98" y1="20016.54" x2="15077.98" y2= "15281.13" />
  </g>
  <line class="fil2 str9" x1="18533.9" y1="9556.02" x2="18526.83" y2= "8161.87" />
  <ellipse class="fil3 str5" transform="matrix(-1.10858 0.172338 0.19933 1.2822 18526.8 8161.88)" rx="89.13" ry="77.06"/>
  <line class="fil2 str11" x1="12792.74" y1="20016.54" x2="12792.74" y2= "15081.12" />
  <polygon class="fil5 str15" points="16755.86,17789.02 16626.13,18022.64 16755.86,18022.64 16755.86,18536.89 16455.86,18536.89 16455.86,18022.64 16585.59,18022.64 16455.86,17789.02 "/>
  <polygon class="fil5 str15" points="15756.19,17712.73 15703.11,17974.62 15826.78,17935.43 15982.15,18425.64 15696.17,18516.28 15540.8,18026.07 15664.46,17986.87 15470.21,17803.37 "/>
  <polygon class="fil5 str15" points="16651.24,13752.42 16776.23,13516.23 16646.52,13518.85 16636.14,13004.7 16936.08,12998.65 16946.46,13512.79 16816.76,13515.41 16951.18,13746.37 "/>
  <polygon class="fil5 str15" points="15588.45,13755.13 15759,13549.4 15631.49,13525.51 15726.22,13020.06 16021.09,13075.32 15926.35,13580.77 15798.84,13556.87 15883.32,13810.39 "/>
  <polygon class="fil5 str15" points="18891.75,9185.92 18669.34,9037.78 18658.89,9167.09 18146.31,9125.65 18170.48,8826.63 18683.06,8868.07 18672.61,8997.38 18915.92,8886.89 "/>
  <polygon class="fil5 str15" points="23457.21,9237.61 23697.99,9353.52 23690.43,9224.01 24203.81,9194.05 24221.28,9493.54 23707.91,9523.5 23700.35,9393.99 23474.68,9537.1 "/>
  <polygon class="fil6 str15" points="17742.83,12618.95 17855.32,12861.35 17931.69,12756.47 18347.4,13059.19 18170.81,13301.7 17755.09,12998.99 17831.46,12894.12 17566.24,12861.47 "/>
  <polygon class="fil5 str15" points="13637.86,7359.96 13468.56,7566.7 13596.21,7589.83 13504.51,8095.84 13209.32,8042.35 13301.01,7536.34 13428.67,7559.47 13342.67,7306.47 "/>
  <polygon class="fil5 str15" points="12929.84,7327.22 12800.11,7560.84 12929.84,7560.84 12929.84,8075.09 12629.84,8075.09 12629.84,7560.84 12759.57,7560.84 12629.84,7327.22 "/>
  <polygon class="fil5 str15" points="13820.52,3035.96 13959.01,2807.43 13829.38,2802.51 13848.88,2288.63 14148.66,2300.01 14129.16,2813.89 13999.53,2808.97 14120.3,3047.34 "/>
  <polygon class="fil5 str15" points="12615.77,3035.96 12754.26,2807.43 12624.63,2802.51 12644.13,2288.63 12943.91,2300.01 12924.41,2813.89 12794.78,2808.97 12915.55,3047.34 "/>
  <polygon class="fil5 str15" points="11074.53,8559.67 10971.48,8313.11 10891.12,8414.96 10487.4,8096.43 10673.22,7860.91 11076.94,8179.44 10996.59,8281.29 11260.35,8324.15 "/>
  <polygon class="fil5 str15" points="10716.22,11460.09 10942.24,11602.65 10949.48,11473.12 11462.93,11501.82 11446.19,11801.35 10932.74,11772.65 10939.98,11643.13 10699.48,11759.62 "/>
  <polygon class="fil5 str15" points="5787.5,11678.23 5552.7,11550.64 5553.89,11680.36 5039.66,11685.07 5036.91,11385.08 5551.14,11380.37 5552.33,11510.1 5784.75,11378.24 "/>
  <path class="fil5 str16" d="M18413.87 12094.92c-65.56,0 -136.65,41.67 -173.55,93.36 -50.78,71.14 -43,124.34 -43,223.71l454.56 0.01 0 -101.55c0,-109.27 -105.98,-215.53 -218.64,-215.53l-19.37 0zm-110.95 348.78c0,-9.05 4.42,-13.23 -3.03,-14.01 -5,7.81 -1.99,33.27 -0.92,42.62 7.49,-6.59 3.95,-11.21 3.95,-28.61zm84.35 -13.75c6.04,33.31 -7.41,85.59 -40.83,85.59 -14.44,0 -7.51,-3.82 -15.23,2.75 -4.7,4 -4.26,3.49 -10.68,5.46 4.35,5.17 12.37,12.38 22.71,12.38 45.91,0 53.67,-101.82 44.03,-106.18zm14.16 -511.22c0,-20.81 33.69,-20.16 32.81,1.44 -0.85,20.9 -32.81,20.54 -32.81,0.16l0 -1.6zm7.92 -26.09c-12.86,3.94 -24.36,18.33 -18.48,36.26 3.94,11.99 19.3,23.51 36.23,17.42 34.11,-12.28 17.84,-64.6 -17.75,-53.68zm-39.74 1.72c2.71,-0.93 1.85,-0.65 4.07,-2.96 8.01,-8.34 13.73,-18.63 34.28,-21.94 19.27,-3.11 44.99,1.49 64.62,-1.19 -13.28,-26.59 -36.96,-22.7 -61.92,-22.7 -12.7,0 -25.81,8.53 -30.97,14.91 -10.62,13.14 -7.37,18.09 -10.08,33.88zm-49.77 561.5c10.32,4.6 11.52,3.25 16.84,12.07 6.31,10.46 6.01,18.85 5.13,30.18 20.63,2.41 30.14,-27.86 30.14,-47.98l-2.23 -20.43 -48.88 0.21 -1 25.95zm95.64 -377.79c32.92,0 32.37,2.32 60.72,5.33 2,-13.79 0.71,-93.18 0.69,-113.3 -29.68,0 -68.91,4.46 -88.35,-8.42 -9.02,-5.97 -15.31,-16.71 -18.93,-18.58l0.31 85.44c0,78.44 -10.64,49.53 45.56,49.53zm44.03 -159.34c0,18.8 -8.46,25.32 -18.57,33.53l269.93 0c16.89,0 58.36,4.24 57.59,-33.49 -0.26,-12.98 -8.05,-23.15 -16.85,-27.96 -11.09,-6.05 -26.98,-4.19 -40.74,-4.19 -29.96,0 -59.93,0 -89.9,0 -58.88,0 -123.46,2.52 -181.63,-0.22 7.63,7.29 20.17,12.33 20.17,32.33zm-177.95 514.24l-42.5 -0.32c3.24,24.72 9.55,46.64 20.05,66.34 12.62,23.66 31.1,45.34 49.56,59.58 94.74,73.1 224.43,43.96 280.74,-59.69 8.49,-15.64 18.95,-45.59 19.65,-65.97 -22.65,-1.13 -190.48,-1.5 -202.52,0.25 2.55,25.4 -0.38,52.12 -9.39,74.15 -7.64,18.7 -21.58,39.2 -42.45,44.15 -47.74,11.34 -74.26,-50.73 -74.26,-96.52l-0.17 -9.65 1.29 -12.32z"/>
  <g>
   <path class="fil7" d="M14865.52 15763.01l0 435.89 -100 0 0 -435.89 100 0zm-100.6 26.4l0 0 -0.01 -11.43 -0.03 -10.86 -0.06 -10.3 -0.1 -9.76 -0.15 -9.23 -0.2 -8.71 -0.26 -8.22 -0.34 -7.72 -0.41 -7.24 -0.49 -6.79 -0.59 -6.34 -0.68 -5.9 -0.8 -5.48 -0.91 -5.07 -1.03 -4.68 -1.17 -4.3 -1.3 -3.92 -1.45 -3.58 -1.6 -3.24 -1.77 -2.9 -1.94 -2.6 -2.11 -2.29 -2.3 -2.01 -2.49 -1.74 -2.69 -1.48 -2.9 -1.23 -3.12 -1 -3.34 -0.78 -3.57 -0.57 -3.82 -0.38 -4.06 -0.21 -4.31 -0.04 0 100 -125 -150 125 -150 0 99.8 0 0 11.43 0.24 10.85 0.68 10.3 1.13 9.75 1.58 9.23 2.04 8.7 2.5 8.2 2.96 7.71 3.44 7.24 3.91 6.77 4.39 6.32 4.88 5.89 5.36 5.47 5.86 5.06 6.35 4.67 6.86 4.28 7.37 3.93 7.88 3.56 8.39 3.23 8.92 2.91 9.44 2.59 9.98 2.3 10.51 2.01 11.04 1.74 11.6 1.49 12.14 1.24 12.69 1.01 13.26 0.8 13.81 0.6 14.39 0.41 14.95 0.23 15.54 0.08 16.11 -100 0z"/>
  </g>
  <g>
   <path class="fil7" d="M15436.11 15701.03l0 497.87 -100 0 0 -497.87 100 0zm-50 -255.8l129.6 259.2 -259.2 0 129.6 -259.2z"/>
  </g>
  <g>
   <path class="fil7" d="M16064.54 15701.03l0 497.87 -100 0 0 -497.87 100 0zm-50 -255.8l129.6 259.2 -259.2 0 129.6 -259.2z"/>
  </g>
  <g>
   <path class="fil7" d="M16653.24 15701.03l0 497.87 -100 0 0 -497.87 100 0zm-50 -255.8l129.6 259.2 -259.2 0 129.6 -259.2z"/>
  </g>
  <g>
   <g>
    <path class="fil4" d="M17079.96 16188.86l0 -89.75 0 89.75zm0 -89.75l0 -538.49 0 538.49z"/>
    <path class="fil7" d="M17119.96 16099.11l0 89.75 -80 0 0 -89.75 80 0zm-2.08 -2.72l-80 0 0.4 -14.71 1.2 -14.13 1.94 -13.56 2.67 -12.99 3.36 -12.44 4.01 -11.89 4.63 -11.34 5.23 -10.82 5.78 -10.28 6.3 -9.76 6.8 -9.26 7.25 -8.74 7.68 -8.25 8.07 -7.76 8.43 -7.27 8.75 -6.8 9.05 -6.33 9.3 -5.87 9.54 -5.41 9.73 -4.97 9.89 -4.53 10.01 -4.09 10.12 -3.67 10.17 -3.25 10.21 -2.85 10.2 -2.44 10.16 -2.04 10.1 -1.66 9.99 -1.27 9.86 -0.91 9.68 -0.53 9.49 -0.18 0 0 -20 -80 160 120 -160 120 20 -80 -3.8 0.03 -4.25 0.17 -4.66 0.32 -5.05 0.48 -5.39 0.66 -5.7 0.86 -5.96 1.06 -6.19 1.28 -6.38 1.53 -6.53 1.77 -6.65 2.04 -6.73 2.32 -6.77 2.61 -6.77 2.92 -6.73 3.25 -6.66 3.58 -6.55 3.94 -6.4 4.3 -6.21 4.68 -5.99 5.08 -5.73 5.5 -5.43 5.91 -5.09 6.36 -4.71 6.81 -4.3 7.27 -3.85 7.76 -3.37 8.26 -2.83 8.77 -2.27 9.29 -1.67 9.84 -1.03 10.39 -0.35 10.96 0 0zm2.08 -535.77l0 538.49 -80 0 0 -538.49 80 0zm-80 538.49l0 -538.49 80 0 0 538.49 -80 0z"/>
   </g>
   <g>
    <path class="fil7" d="M17079.94 15455.19l103.69 207.36 -207.36 0 103.67 -207.36zm-39.98 674.58l-0.02 -469.95 80 0 0.02 469.95 -80 0z"/>
   </g>
  </g>
  <g>
   <path class="fil7" d="M13930.74 5287.71l0 -497.87 100 0 0 497.87 -100 0zm50 255.8l-129.6 -259.2 259.2 0 -129.6 259.2z"/>
  </g>
  <g>
   <path class="fil7" d="M13302.7 5297.75l0 -497.87 100 0 0 497.87 -100 0zm50 255.8l-129.6 -259.2 259.2 0 -129.6 259.2z"/>
  </g>
  <g>
   <path class="fil7" d="M12674.66 5287.71l0 -497.87 100 0 0 497.87 -100 0zm50 255.8l-129.6 -259.2 259.2 0 -129.6 259.2z"/>
  </g>
  <g>
   <g>
    <path class="fil4" d="M12300.98 4799.88l0 89.75 0 -89.75zm0 89.75l0 538.49 0 -538.49z"/>
    <path class="fil7" d="M12260.98 4889.63l0 -89.75 80 0 0 89.75 -80 0zm2.08 2.72l80 0 -0.4 14.71 -1.2 14.13 -1.94 13.56 -2.67 12.99 -3.36 12.44 -4.01 11.89 -4.63 11.34 -5.23 10.82 -5.78 10.28 -6.3 9.76 -6.8 9.26 -7.25 8.74 -7.68 8.25 -8.07 7.76 -8.43 7.27 -8.75 6.8 -9.05 6.33 -9.3 5.87 -9.54 5.41 -9.73 4.97 -9.89 4.53 -10.01 4.09 -10.12 3.67 -10.17 3.25 -10.21 2.85 -10.2 2.44 -10.16 2.04 -10.1 1.66 -9.99 1.27 -9.86 0.91 -9.68 0.53 -9.49 0.18 0 0 20 80 -160 -120 160 -120 -20 80 3.8 -0.03 4.25 -0.17 4.66 -0.32 5.05 -0.48 5.39 -0.66 5.7 -0.86 5.96 -1.06 6.19 -1.28 6.38 -1.53 6.53 -1.77 6.65 -2.04 6.73 -2.32 6.77 -2.61 6.77 -2.92 6.73 -3.25 6.66 -3.58 6.55 -3.94 6.4 -4.3 6.21 -4.68 5.99 -5.08 5.73 -5.5 5.43 -5.91 5.09 -6.36 4.71 -6.81 4.3 -7.27 3.85 -7.76 3.36 -8.26 2.84 -8.77 2.27 -9.29 1.67 -9.84 1.03 -10.39 0.35 -10.96 0 0zm-2.08 535.77l0 -538.49 80 0 0 538.49 -80 0zm80 -538.49l0 538.49 -80 0 0 -538.49 80 0z"/>
   </g>
   <g>
    <path class="fil7" d="M12301 5533.55l-103.69 -207.36 207.36 0 -103.67 207.36zm39.98 -674.58l0.02 469.95 -80 0 -0.02 -469.95 80 0z"/>
   </g>
  </g>
  <g>
   <path class="fil7" d="M14533.14 5225.72l0 -435.89 100 0 0 435.89 -100 0zm100.6 -26.4l0 0 0.01 11.43 0.03 10.86 0.06 10.3 0.1 9.76 0.15 9.23 0.2 8.71 0.26 8.22 0.34 7.72 0.41 7.24 0.49 6.79 0.59 6.34 0.68 5.9 0.8 5.48 0.91 5.07 1.03 4.68 1.17 4.3 1.3 3.92 1.45 3.58 1.6 3.24 1.77 2.9 1.94 2.6 2.11 2.29 2.3 2.01 2.49 1.74 2.69 1.48 2.9 1.23 3.12 1 3.34 0.78 3.57 0.57 3.82 0.38 4.06 0.21 4.31 0.04 0 -100 125 150 -125 150 0 -99.8 0 0 -11.43 -0.24 -10.85 -0.68 -10.3 -1.13 -9.75 -1.58 -9.23 -2.04 -8.7 -2.5 -8.2 -2.96 -7.71 -3.44 -7.24 -3.91 -6.77 -4.39 -6.32 -4.88 -5.89 -5.36 -5.47 -5.86 -5.06 -6.35 -4.67 -6.86 -4.28 -7.37 -3.93 -7.88 -3.56 -8.39 -3.23 -8.92 -2.91 -9.44 -2.59 -9.98 -2.3 -10.51 -2.01 -11.04 -1.74 -11.6 -1.49 -12.14 -1.24 -12.69 -1.01 -13.26 -0.8 -13.81 -0.6 -14.39 -0.41 -14.95 -0.23 -15.54 -0.08 -16.11 100 0z"/>
  </g>
  <g>
   <path class="fil7" d="M8447.12 11612.26l-497.87 0 0 -100 497.87 0 0 100zm255.8 -50l-259.2 129.6 0 -259.2 259.2 129.6z"/>
  </g>
  <g>
   <g>
    <path class="fil4" d="M7959.29 11985.94l89.75 0 -89.75 0zm89.75 0l538.5 0 -538.5 0z"/>
    <path class="fil7" d="M8049.04 12025.94l-89.75 0 0 -80 89.75 0 0 80zm2.72 -2.08l0 -80 14.71 0.4 14.13 1.2 13.56 1.94 12.99 2.67 12.44 3.36 11.89 4.01 11.34 4.63 10.82 5.23 10.28 5.78 9.76 6.3 9.26 6.8 8.74 7.25 8.25 7.68 7.76 8.07 7.27 8.43 6.8 8.75 6.33 9.05 5.87 9.3 5.41 9.54 4.97 9.73 4.53 9.89 4.09 10.01 3.67 10.12 3.25 10.17 2.85 10.21 2.44 10.2 2.04 10.16 1.66 10.1 1.27 9.99 0.91 9.86 0.53 9.68 0.18 9.49 0 0 80 -20 -120 160 -120 -160 80 20 -0.03 -3.8 -0.17 -4.25 -0.32 -4.66 -0.48 -5.05 -0.66 -5.39 -0.86 -5.7 -1.06 -5.96 -1.28 -6.19 -1.53 -6.38 -1.77 -6.53 -2.04 -6.65 -2.32 -6.73 -2.61 -6.77 -2.92 -6.77 -3.25 -6.73 -3.58 -6.66 -3.94 -6.55 -4.3 -6.4 -4.68 -6.21 -5.08 -5.99 -5.5 -5.73 -5.91 -5.43 -6.36 -5.09 -6.81 -4.71 -7.27 -4.3 -7.76 -3.85 -8.26 -3.37 -8.77 -2.83 -9.29 -2.27 -9.84 -1.67 -10.39 -1.03 -10.96 -0.35 0 0zm535.78 2.08l-538.5 0 0 -80 538.5 0 0 80zm-538.5 -80l538.5 0 0 80 -538.5 0 0 -80z"/>
   </g>
   <g>
    <path class="fil7" d="M8692.96 11985.92l-207.36 103.69 0 -207.36 207.36 103.67zm-674.58 -39.98l469.95 -0.02 0 80 -469.95 0.02 0 -80z"/>
   </g>
  </g>
  <g>
   <path class="fil7" d="M8395.17 10897.55l-435.89 0 0 -100 435.89 0 0 100zm-26.4 -100.6l0 0 11.43 -0.01 10.86 -0.03 10.3 -0.06 9.76 -0.1 9.23 -0.15 8.71 -0.2 8.22 -0.26 7.72 -0.34 7.24 -0.41 6.79 -0.49 6.34 -0.59 5.9 -0.68 5.48 -0.8 5.07 -0.91 4.68 -1.03 4.3 -1.17 3.92 -1.3 3.58 -1.45 3.24 -1.6 2.9 -1.77 2.6 -1.94 2.29 -2.11 2.01 -2.3 1.74 -2.49 1.48 -2.69 1.23 -2.9 1 -3.12 0.78 -3.34 0.57 -3.57 0.38 -3.82 0.21 -4.06 0.04 -4.31 -100 0 150 -125 150 125 -99.8 0 0 0 -0.24 11.43 -0.68 10.85 -1.13 10.3 -1.58 9.75 -2.04 9.23 -2.5 8.7 -2.96 8.2 -3.44 7.71 -3.91 7.24 -4.39 6.77 -4.88 6.32 -5.36 5.89 -5.86 5.47 -6.35 5.06 -6.86 4.67 -7.37 4.28 -7.88 3.93 -8.39 3.56 -8.92 3.23 -9.44 2.91 -9.98 2.59 -10.51 2.3 -11.04 2.01 -11.6 1.74 -12.14 1.49 -12.69 1.24 -13.26 1.01 -13.81 0.8 -14.39 0.6 -14.95 0.41 -15.54 0.23 -16.11 0.08 0 -100z"/>
  </g>
  <g>
   <path class="fil7" d="M21424.53 9487.09l497.87 0 0 100 -497.87 0 0 -100zm-255.8 50l259.2 -129.6 0 259.2 -259.2 -129.6z"/>
  </g>
  <g>
   <g>
    <path class="fil4" d="M21912.36 9083.43l-89.75 0 89.75 0zm-89.75 0l-538.5 0 538.5 0z"/>
    <path class="fil7" d="M21822.61 9043.43l89.75 0 0 80 -89.75 0 0 -80zm-2.72 2.08l0 80 -14.71 -0.4 -14.13 -1.2 -13.56 -1.94 -12.99 -2.67 -12.44 -3.36 -11.89 -4.01 -11.34 -4.63 -10.82 -5.23 -10.28 -5.78 -9.76 -6.3 -9.26 -6.8 -8.74 -7.25 -8.25 -7.68 -7.76 -8.07 -7.27 -8.43 -6.8 -8.75 -6.33 -9.05 -5.87 -9.3 -5.41 -9.54 -4.97 -9.73 -4.53 -9.89 -4.09 -10.01 -3.67 -10.12 -3.25 -10.17 -2.85 -10.21 -2.44 -10.2 -2.04 -10.16 -1.66 -10.1 -1.27 -9.99 -0.91 -9.86 -0.53 -9.68 -0.18 -9.49 0 0 -80 20 120 -160 120 160 -80 -20 0.03 3.8 0.17 4.25 0.32 4.66 0.48 5.05 0.66 5.39 0.86 5.7 1.06 5.96 1.28 6.19 1.53 6.38 1.77 6.53 2.04 6.65 2.32 6.73 2.61 6.77 2.92 6.77 3.25 6.73 3.58 6.66 3.94 6.55 4.3 6.4 4.68 6.21 5.08 5.99 5.5 5.73 5.91 5.43 6.36 5.09 6.81 4.71 7.27 4.3 7.76 3.85 8.26 3.36 8.77 2.84 9.29 2.27 9.84 1.67 10.39 1.03 10.96 0.35 0 0zm-535.78 -2.08l538.5 0 0 80 -538.5 0 0 -80zm538.5 80l-538.5 0 0 -80 538.5 0 0 80z"/>
   </g>
   <g>
    <path class="fil7" d="M21178.69 9083.45l207.36 -103.69 0 207.36 -207.36 -103.67zm674.58 39.98l-469.95 0.02 0 -80 469.95 -0.02 0 80z"/>
   </g>
  </g>
  <g>
   <path class="fil7" d="M21486.5 10078.5l435.89 0 0 100 -435.89 0 0 -100zm26.4 100.6l0 0 -11.43 0.01 -10.86 0.03 -10.3 0.06 -9.76 0.1 -9.23 0.15 -8.71 0.2 -8.22 0.26 -7.72 0.34 -7.24 0.41 -6.79 0.49 -6.34 0.59 -5.9 0.68 -5.48 0.8 -5.07 0.91 -4.68 1.03 -4.3 1.17 -3.92 1.3 -3.58 1.45 -3.24 1.6 -2.9 1.77 -2.6 1.94 -2.29 2.11 -2.01 2.3 -1.74 2.49 -1.48 2.69 -1.23 2.9 -1 3.12 -0.78 3.34 -0.57 3.57 -0.38 3.82 -0.21 4.06 -0.04 4.31 100 0 -150 125 -150 -125 99.8 0 0 0 0.24 -11.43 0.68 -10.85 1.13 -10.3 1.58 -9.75 2.04 -9.23 2.5 -8.7 2.96 -8.2 3.44 -7.71 3.91 -7.24 4.39 -6.77 4.88 -6.32 5.36 -5.89 5.86 -5.47 6.35 -5.06 6.86 -4.67 7.37 -4.28 7.88 -3.93 8.39 -3.56 8.92 -3.23 9.44 -2.91 9.98 -2.59 10.51 -2.3 11.04 -2.01 11.6 -1.74 12.14 -1.49 12.69 -1.24 13.26 -1.01 13.81 -0.8 14.39 -0.6 14.95 -0.41 15.54 -0.23 16.11 -0.08 0 100z"/>
  </g>
 </g>
</svg>
