<svg xmlns="http://www.w3.org/2000/svg" width="100%" height="100%" fit="" preserveAspectRatio="xMidYMid meet" focusable="false"><path d="M18.563 13.055l-3.77-3.77.985-.985a.65.65 0 0 0 .19-.456.64.64 0 0 0-.19-.456L12.61 4.22c-.252-.252-.66-.252-.912 0l-.985.985-3.77-3.77c-.252-.252-.66-.252-.912 0l-3.164 3.17c-.252.252-.252.66 0 .912l3.77 3.77-.985.985a.65.65 0 0 0-.19.456.64.64 0 0 0 .19.456L8.82 14.35a.64.64 0 0 0 .912 0l.985-.985 3.77 3.77a.64.64 0 0 0 .912 0l3.167-3.167a.65.65 0 0 0 .19-.456.64.64 0 0 0-.19-.456zM4.236 5.062L6.5 2.807 9.803 6.12 7.548 8.374 4.236 5.062zm5.04 7.92L7.02 10.727l5.137-5.136 2.255 2.255-5.136 5.136zm5.665 2.784l-3.312-3.312 2.255-2.255 3.313 3.313-2.255 2.255zM7.47 17.46c-1.317 0-2.555-.513-3.486-1.444A4.9 4.9 0 0 1 2.54 12.53c0-.356-.3-.645-.645-.645s-.645.3-.645.645a6.18 6.18 0 0 0 1.822 4.398A6.18 6.18 0 0 0 7.47 18.75c.356 0 .645-.3.645-.645s-.3-.645-.645-.645zm-.258-1.24c.356 0 .645-.3.645-.645s-.3-.645-.645-.645a2.13 2.13 0 0 1-1.515-.628 2.13 2.13 0 0 1-.628-1.515c0-.356-.3-.645-.645-.645s-.645.3-.645.645a3.41 3.41 0 0 0 1.005 2.427 3.41 3.41 0 0 0 2.427 1.005z"></path></svg>